<svg xmlns="http://www.w3.org/2000/svg" viewBox="0 0 606 606"><defs><style>.cls-1{fill:#8abcce;}.cls-2{fill:#fff;}.cls-3{font-size:400px;fill:#f2f2f2;font-family:Montserrat-Bold, Montserrat;font-weight:700;}</style></defs><title>m_iconAsset 2</title><g id="Layer_2" data-name="Layer 2"><g id="Layer_1-2" data-name="Layer 1"><rect class="cls-1" x="0.5" y="0.5" width="605" height="605" rx="92.46"/><path class="cls-2" d="M513,1a92.06,92.06,0,0,1,92,92V513a92.06,92.06,0,0,1-92,92H93A92.06,92.06,0,0,1,1,513V93A92.06,92.06,0,0,1,93,1H513m0-1H93A93,93,0,0,0,0,93V513a93,93,0,0,0,93,93H513a93,93,0,0,0,93-93V93A93,93,0,0,0,513,0Z"/><text class="cls-3" transform="translate(128.06 449.26)">M</text></g></g></svg>